<svg xmlns="http://www.w3.org/2000/svg" version="1.1" xmlns:xlink="http://www.w3.org/1999/xlink" xmlns:svgjs="http://svgjs.dev/svgjs" width="128" height="128" viewBox="0 0 128 128"><g transform="matrix(0.8046875,0,0,0.8046875,12.333870967741937,12.333870967741937)"><svg viewBox="0 0 155 155" data-background-color="#010536" preserveAspectRatio="xMidYMid meet" height="128" width="128" xmlns="http://www.w3.org/2000/svg" xmlns:xlink="http://www.w3.org/1999/xlink"><g id="tight-bounds" transform="matrix(1,0,0,1,0.25,0.25)"><svg viewBox="0 0 154.5 154.5" height="154.5" width="154.5"><g><svg></svg></g><g><svg viewBox="0 0 154.5 154.5" height="154.5" width="154.5"><g transform="matrix(1,0,0,1,54.093262907608704,43.83165)"><svg viewBox="0 0 46.3134741847826 66.8367" height="66.8367" width="46.3134741847826"><g><svg viewBox="0 0 46.3134741847826 66.8367" height="66.8367" width="46.3134741847826"><g><svg viewBox="0 0 46.3134741847826 66.8367" height="66.8367" width="46.3134741847826"><g><svg viewBox="0 0 46.3134741847826 66.8367" height="66.8367" width="46.3134741847826"><g><svg viewBox="0 0 46.3134741847826 66.8367" height="66.8367" width="46.3134741847826"><g transform="matrix(1,0,0,1,0,0)"><svg width="46.3134741847826" viewBox="-0.34 -35.35 24.9 35.94" height="66.8367" data-palette-color="#fbfbf8"><path d="M24.56-20.12L24.56-20.12Q24.56-18.68 24.56-17.26 24.56-15.84 24.41-14.4L24.41-14.4Q24.15-11.35 23.1-8.63 22.05-5.91 20.25-3.86 18.46-1.81 15.89-0.61 13.33 0.59 10.01 0.59L10.01 0.59Q8.72 0.59 7.31 0.37 5.91 0.15 4.53-0.29 3.15-0.73 1.89-1.38 0.63-2.03-0.34-2.88L-0.34-2.88 1.17-12.99Q2.61-11.6 4.37-10.73 6.13-9.86 8.2-9.86L8.2-9.86Q9.55-9.86 10.47-10.25 11.4-10.64 12.01-11.33 12.62-12.01 12.98-12.93 13.33-13.84 13.49-14.88 13.65-15.92 13.68-17.02 13.72-18.12 13.72-19.19L13.72-19.19Q13.72-23.07 13.33-26.92 12.94-30.76 12.65-34.62L12.65-34.62 23.83-35.35Q24.56-27.73 24.56-20.12Z" opacity="1" transform="matrix(1,0,0,1,0,0)" fill="#fbfbf8" class="undefined-text-0" data-fill-palette-color="primary" id="text-0"></path></svg></g></svg></g></svg></g></svg></g><g></g></svg></g></svg></g><g mask="url(#5865eb4b-e51f-4477-816b-c18f766604b7)"><g transform="matrix(1.7888943766392602, 0, 0, 1.7888943766392602, 1.0088665873408473, 1)"><svg xmlns="http://www.w3.org/2000/svg" xmlns:xlink="http://www.w3.org/1999/xlink" version="1.1" x="0" y="0" viewBox="7.0631382878062885 6.651814309743116 85.23827276587562 85.24818569025689" style="enable-background:new 0 0 100 100;" xml:space="preserve" height="85.24818569025689" width="85.23827276587562" class="icon-none" data-fill-palette-color="accent" id="none"><path d="M28.9 91.9c-1.5 0-3-0.3-4.4-0.8-4.5-1.6-7.8-5.3-8.7-10L7.3 36.7c-0.9-4.7 0.8-9.6 4.5-12.7L28.6 9.8c3.7-3.1 8.8-4 13.2-2.3l41.9 15.7c4.5 1.7 7.6 5.5 8.4 10.2 0.8 4.7-0.8 9.3-4.5 12.4L37.5 88.7C35.1 90.8 32 91.9 28.9 91.9zM37.2 12.7c-1.7 0-3.4 0.6-4.7 1.7L15.6 28.6c-2 1.7-3 4.4-2.5 7L21.7 80c0.5 2.6 2.3 4.6 4.8 5.5 2.5 0.9 5.2 0.4 7.2-1.3l50.2-42.9c2-1.7 2.9-4.2 2.5-6.8-0.5-2.6-2.2-4.7-4.6-5.6L39.7 13.2C38.9 12.8 38 12.7 37.2 12.7z" fill="#ffff00" data-fill-palette-color="accent"></path></svg></g></g></svg></g><defs><mask id="5865eb4b-e51f-4477-816b-c18f766604b7"><rect width="250" height="250" fill="white"></rect><rect width="50.94482160326086" height="98.3937815784" fill="black" x="99.52758919836957" y="75.8031092108" id="transform-me" transform="matrix(1,0,0,1,-47.75,-47.75)"></rect></mask></defs></svg><rect width="154.5" height="154.5" fill="none" stroke="none" visibility="hidden"></rect></g></svg></g></svg>