<svg xmlns="http://www.w3.org/2000/svg" version="1.1" xmlns:xlink="http://www.w3.org/1999/xlink" xmlns:svgjs="http://svgjs.dev/svgjs" width="1000" height="750" viewBox="0 0 1000 750"><rect width="1000" height="750" fill="#010536"></rect><g transform="matrix(0.834,0,0,0.834,82.49454545454546,115.4193570850203)"><svg viewBox="0 0 396 247" data-background-color="#010536" preserveAspectRatio="xMidYMid meet" height="623" width="1000" xmlns="http://www.w3.org/2000/svg" xmlns:xlink="http://www.w3.org/1999/xlink"><g id="tight-bounds" transform="matrix(1,0,0,1,0.2400000000000091,-0.09999999999999432)"><svg viewBox="0 0 395.52 247.2" height="247.2" width="395.52"><g><svg></svg></g><g><svg viewBox="0 0 395.52 247.2" height="247.2" width="395.52"><g transform="matrix(1,0,0,1,137.80728260869563,37.08)"><svg viewBox="0 0 119.9054347826087 173.04" height="173.04" width="119.9054347826087"><g><svg viewBox="0 0 119.9054347826087 173.04" height="173.04" width="119.9054347826087"><g><svg viewBox="0 0 119.9054347826087 173.04" height="173.04" width="119.9054347826087"><g><svg viewBox="0 0 119.9054347826087 173.04" height="173.04" width="119.9054347826087"><g><svg viewBox="0 0 119.9054347826087 173.04" height="173.04" width="119.9054347826087"><g><svg viewBox="0 0 119.9054347826087 173.04" height="173.04" width="119.9054347826087"><g transform="matrix(1,0,0,1,0,0)"><svg width="119.9054347826087" viewBox="-0.3400000035762787 -35.349998474121094 24.899999618530273 35.939998626708984" height="173.04" data-palette-color="#fbfbf8"><path d="M24.56-20.12L24.56-20.12Q24.56-18.68 24.56-17.26 24.56-15.84 24.41-14.4L24.41-14.4Q24.15-11.35 23.1-8.63 22.05-5.91 20.25-3.86 18.46-1.81 15.89-0.61 13.33 0.59 10.01 0.59L10.01 0.59Q8.72 0.59 7.31 0.37 5.91 0.15 4.53-0.29 3.15-0.73 1.89-1.38 0.63-2.03-0.34-2.88L-0.34-2.88 1.17-12.99Q2.61-11.6 4.37-10.73 6.13-9.86 8.2-9.86L8.2-9.86Q9.55-9.86 10.47-10.25 11.4-10.64 12.01-11.33 12.62-12.01 12.98-12.93 13.33-13.84 13.49-14.88 13.65-15.92 13.68-17.02 13.72-18.12 13.72-19.19L13.72-19.19Q13.72-23.07 13.33-26.92 12.94-30.76 12.65-34.62L12.65-34.62 23.83-35.35Q24.56-27.73 24.56-20.12Z" opacity="1" transform="matrix(1,0,0,1,0,0)" fill="#fbfbf8" class="undefined-text-0" data-fill-palette-color="primary" id="text-0"></path></svg></g></svg></g></svg></g></svg></g><g></g></svg></g></svg></g></svg></g><g mask="url(#5007d44e-8490-4d58-8e71-d0f16dc54285)"><g transform="matrix(2.8763075986808246, 0, 0, 2.8763075986808246, 75.17426391555132, 1.0000000000000142)"><svg xmlns="http://www.w3.org/2000/svg" xmlns:xlink="http://www.w3.org/1999/xlink" version="1.1" x="0" y="0" viewBox="7.063138484954834 6.651815414428711 85.23826599121094 85.24818420410156" style="enable-background:new 0 0 100 100;" xml:space="preserve" height="85.24818420410156" width="85.23826599121094" class="icon-none" data-fill-palette-color="accent" id="none"><path d="M28.9 91.9c-1.5 0-3-0.3-4.4-0.8-4.5-1.6-7.8-5.3-8.7-10L7.3 36.7c-0.9-4.7 0.8-9.6 4.5-12.7L28.6 9.8c3.7-3.1 8.8-4 13.2-2.3l41.9 15.7c4.5 1.7 7.6 5.5 8.4 10.2 0.8 4.7-0.8 9.3-4.5 12.4L37.5 88.7C35.1 90.8 32 91.9 28.9 91.9zM37.2 12.7c-1.7 0-3.4 0.6-4.7 1.7L15.6 28.6c-2 1.7-3 4.4-2.5 7L21.7 80c0.5 2.6 2.3 4.6 4.8 5.5 2.5 0.9 5.2 0.4 7.2-1.3l50.2-42.9c2-1.7 2.9-4.2 2.5-6.8-0.5-2.6-2.2-4.7-4.6-5.6L39.7 13.2C38.9 12.8 38 12.7 37.2 12.7z" fill="#ffff00" data-fill-palette-color="accent"></path></svg></g></g></svg></g><defs><mask id="5007d44e-8490-4d58-8e71-d0f16dc54285"><rect width="640" height="400" fill="white"></rect><rect width="131.89597826086958" height="254.74118208" fill="black" x="254.0520108695652" y="72.62940896" id="transform-me" transform="matrix(1,0,0,1,-122.24000000000001,-76.4)"></rect></mask></defs></svg><rect width="395.52" height="247.2" fill="none" stroke="none" visibility="hidden"></rect></g></svg></g></svg>